<svg xmlns="http://www.w3.org/2000/svg" xmlns:xlink="http://www.w3.org/1999/xlink" width="43" height="28" viewBox="0 0 43 28">
    <defs>
        <path id="9mv0t1azca" d="M0 0L43 0 43 28 0 28z"/>
    </defs>
    <g fill="none" fill-rule="evenodd">
        <g>
            <g>
                <g>
                    <path fill="#50E2C6" d="M20.652 24.95c-.774 0-1.548-.279-2.138-.84-2.779-2.634-4.308-6.136-4.308-9.86 0-3.687 1.502-7.162 4.23-9.787 1.173-1.128 3.088-1.143 4.276-.03 1.19 1.11 1.204 2.925.032 4.053-1.606 1.546-2.49 3.593-2.49 5.764 0 2.193.9 4.255 2.537 5.807 1.18 1.12 1.18 2.935 0 4.054-.591.56-1.365.84-2.139.84" transform="translate(-681.000000, -1196.000000) translate(578.000000, 1136.000000) translate(103.000000, 60.000000)"/>
                    <g transform="translate(-681.000000, -1196.000000) translate(578.000000, 1136.000000) translate(103.000000, 60.000000)">
                        <mask id="zws3kyl0yb" fill="#fff">
                            <use xlink:href="#9mv0t1azca"/>
                        </mask>
                        <path fill="#EF294B" d="M28.537 22.244c-.75 0-1.482-.102-2.188-.283 1.622-2.261 2.576-5.005 2.576-7.96 0-2.957-.954-5.7-2.576-7.962.706-.18 1.438-.283 2.188-.283 4.696 0 8.517 3.699 8.517 8.245 0 4.545-3.821 8.243-8.517 8.243M5.946 14.001c0-4.546 3.82-8.245 8.516-8.245S22.978 9.455 22.978 14c0 4.545-3.82 8.243-8.516 8.243s-8.516-3.698-8.516-8.243M28.537 0c-2.51 0-4.918.616-7.046 1.77C19.408.646 17.012 0 14.462 0 6.488 0 0 6.28 0 14s6.488 14 14.462 14c2.55 0 4.947-.645 7.03-1.771C23.621 27.383 26.03 28 28.536 28 36.512 28 43 21.72 43 14S36.512 0 28.537 0" mask="url(#zws3kyl0yb)"/>
                    </g>
                </g>
            </g>
        </g>
    </g>
</svg>
